<?xml version="1.0" encoding="UTF-8"?>
<svg xmlns="http://www.w3.org/2000/svg" xmlns:xlink="http://www.w3.org/1999/xlink" width="32pt" height="32pt" viewBox="0 0 32 32" version="1.1">
<g id="surface1">
<path style=" stroke:none;fill-rule:nonzero;fill:rgb(0%,0%,0%);fill-opacity:1;" d="M 18.238281 5.589844 C 17.867188 6.050781 17.867188 6.171875 17.867188 14.308594 C 17.867188 23.382812 17.867188 23.347656 18.910156 23.347656 C 19.8125 23.347656 19.988281 22.925781 19.988281 20.730469 C 19.988281 19.632812 20.042969 18.75 20.128906 18.75 C 20.199219 18.75 20.925781 19.316406 21.757812 20.007812 C 24.640625 22.429688 25.101562 22.660156 25.824219 21.933594 C 26.160156 21.597656 26.179688 21.351562 26.179688 17.636719 C 26.179688 13.425781 26.074219 12.914062 25.277344 12.914062 C 25.101562 12.914062 23.898438 13.425781 22.640625 14.0625 C 21.386719 14.699219 20.269531 15.210938 20.164062 15.210938 C 20.042969 15.210938 20.007812 13.671875 20.042969 10.613281 C 20.128906 5.535156 20.078125 5.253906 19.15625 5.164062 C 18.730469 5.128906 18.519531 5.21875 18.238281 5.589844 Z M 24.054688 17.335938 C 24.054688 18.203125 24.003906 18.925781 23.949219 18.925781 C 23.808594 18.925781 21.6875 17.15625 21.617188 17 C 21.582031 16.894531 23.632812 15.777344 23.933594 15.761719 C 24.003906 15.742188 24.054688 16.449219 24.054688 17.335938 Z M 24.054688 17.335938 "/>
<path style=" stroke:none;fill-rule:nonzero;fill:rgb(0%,0%,0%);fill-opacity:1;" d="M 7.695312 10.507812 L 7.289062 10.929688 L 7.253906 16.769531 C 7.234375 22.445312 7.253906 22.640625 7.605469 22.996094 C 7.941406 23.332031 8.171875 23.347656 12.257812 23.347656 C 16.21875 23.347656 16.59375 23.3125 16.855469 23.03125 C 17.28125 22.570312 17.230469 21.828125 16.769531 21.507812 C 16.433594 21.28125 15.761719 21.226562 12.878906 21.226562 L 9.375 21.226562 L 9.375 12.207031 L 12.628906 12.207031 C 14.417969 12.207031 16.027344 12.152344 16.183594 12.097656 C 16.839844 11.832031 16.855469 10.648438 16.203125 10.222656 C 16.097656 10.152344 14.238281 10.082031 12.0625 10.082031 C 8.15625 10.082031 8.117188 10.082031 7.695312 10.507812 Z M 7.695312 10.507812 "/>
<path style=" stroke:none;fill-rule:nonzero;fill:rgb(0%,0%,0%);fill-opacity:1;" d="M 8.683594 24.695312 C 8.683594 24.886719 8.738281 24.941406 8.792969 24.800781 C 8.84375 24.675781 8.828125 24.515625 8.773438 24.464844 C 8.71875 24.394531 8.667969 24.5 8.683594 24.695312 Z M 8.683594 24.695312 "/>
<path style=" stroke:none;fill-rule:nonzero;fill:rgb(0%,0%,0%);fill-opacity:1;" d="M 9.320312 24.640625 C 9.269531 24.78125 9.339844 24.886719 9.464844 24.886719 C 9.585938 24.886719 9.65625 24.78125 9.605469 24.640625 C 9.550781 24.515625 9.5 24.410156 9.464844 24.410156 C 9.429688 24.410156 9.375 24.515625 9.320312 24.640625 Z M 9.320312 24.640625 "/>
<path style=" stroke:none;fill-rule:nonzero;fill:rgb(0%,0%,0%);fill-opacity:1;" d="M 11.691406 24.695312 C 11.691406 24.886719 11.746094 24.941406 11.796875 24.800781 C 11.851562 24.675781 11.832031 24.515625 11.78125 24.464844 C 11.726562 24.394531 11.675781 24.5 11.691406 24.695312 Z M 11.691406 24.695312 "/>
<path style=" stroke:none;fill-rule:nonzero;fill:rgb(0%,0%,0%);fill-opacity:1;" d="M 13.390625 24.640625 C 13.335938 24.78125 13.40625 24.886719 13.550781 24.886719 C 13.832031 24.886719 13.886719 24.65625 13.636719 24.515625 C 13.550781 24.464844 13.445312 24.515625 13.390625 24.640625 Z M 13.390625 24.640625 "/>
<path style=" stroke:none;fill-rule:nonzero;fill:rgb(0%,0%,0%);fill-opacity:1;" d="M 15.246094 24.765625 C 15.246094 25.011719 15.28125 25.101562 15.335938 24.976562 C 15.371094 24.871094 15.371094 24.65625 15.335938 24.535156 C 15.28125 24.429688 15.246094 24.515625 15.246094 24.765625 Z M 15.246094 24.765625 "/>
<path style=" stroke:none;fill-rule:nonzero;fill:rgb(0%,0%,0%);fill-opacity:1;" d="M 16.644531 24.695312 C 16.644531 24.886719 16.699219 24.941406 16.75 24.800781 C 16.804688 24.675781 16.785156 24.515625 16.734375 24.464844 C 16.679688 24.394531 16.628906 24.5 16.644531 24.695312 Z M 16.644531 24.695312 "/>
<path style=" stroke:none;fill-rule:nonzero;fill:rgb(0%,0%,0%);fill-opacity:1;" d="M 17.53125 24.621094 C 17.511719 24.800781 17.636719 24.941406 17.777344 24.941406 C 17.917969 24.941406 18.042969 24.800781 18.042969 24.621094 C 18.042969 24.394531 18.007812 24.375 17.882812 24.570312 C 17.757812 24.765625 17.722656 24.765625 17.636719 24.570312 C 17.566406 24.394531 17.53125 24.410156 17.53125 24.621094 Z M 17.53125 24.621094 "/>
<path style=" stroke:none;fill-rule:nonzero;fill:rgb(0%,0%,0%);fill-opacity:1;" d="M 18.855469 24.640625 C 18.910156 24.816406 19.015625 24.90625 19.070312 24.851562 C 19.121094 24.800781 19.070312 24.65625 18.945312 24.535156 C 18.769531 24.375 18.75 24.394531 18.855469 24.640625 Z M 18.855469 24.640625 "/>
<path style=" stroke:none;fill-rule:nonzero;fill:rgb(0%,0%,0%);fill-opacity:1;" d="M 22.394531 24.675781 C 22.464844 24.816406 22.535156 24.941406 22.570312 24.941406 C 22.605469 24.941406 22.640625 24.816406 22.640625 24.675781 C 22.640625 24.535156 22.570312 24.410156 22.464844 24.410156 C 22.375 24.410156 22.339844 24.535156 22.394531 24.675781 Z M 22.394531 24.675781 "/>
<path style=" stroke:none;fill-rule:nonzero;fill:rgb(0%,0%,0%);fill-opacity:1;" d="M 24.621094 24.765625 C 24.621094 25.011719 24.65625 25.101562 24.710938 24.976562 C 24.746094 24.871094 24.746094 24.65625 24.710938 24.535156 C 24.65625 24.429688 24.621094 24.515625 24.621094 24.765625 Z M 24.621094 24.765625 "/>
<path style=" stroke:none;fill-rule:nonzero;fill:rgb(0%,0%,0%);fill-opacity:1;" d="M 25.683594 24.570312 C 25.488281 24.695312 25.488281 24.730469 25.683594 24.816406 C 25.84375 24.871094 25.949219 24.800781 25.949219 24.65625 C 25.949219 24.515625 25.929688 24.410156 25.929688 24.410156 C 25.914062 24.410156 25.808594 24.480469 25.683594 24.570312 Z M 25.683594 24.570312 "/>
<path style=" stroke:none;fill-rule:nonzero;fill:rgb(0%,0%,0%);fill-opacity:1;" d="M 24.957031 24.871094 C 24.957031 25.066406 25.011719 25.117188 25.066406 24.976562 C 25.117188 24.851562 25.101562 24.695312 25.046875 24.640625 C 24.992188 24.570312 24.941406 24.675781 24.957031 24.871094 Z M 24.957031 24.871094 "/>
<path style=" stroke:none;fill-rule:nonzero;fill:rgb(0%,0%,0%);fill-opacity:1;" d="M 14.292969 24.886719 C 14.417969 24.941406 14.574219 24.921875 14.628906 24.871094 C 14.699219 24.816406 14.59375 24.765625 14.398438 24.78125 C 14.203125 24.78125 14.152344 24.835938 14.292969 24.886719 Z M 14.292969 24.886719 "/>
</g>
</svg>
