<?xml version="1.0" encoding="UTF-8"?>
<svg xmlns="http://www.w3.org/2000/svg" xmlns:xlink="http://www.w3.org/1999/xlink" width="62pt" height="54pt" viewBox="0 0 62 54" version="1.1">
<g id="surface1">
<path style=" stroke:none;fill-rule:nonzero;fill:rgb(0%,0%,0%);fill-opacity:1;" d="M 36.03125 1.109375 C 35.328125 2.117188 35.226562 5.289062 35.226562 25.691406 C 35.226562 51.480469 35.226562 51.378906 38.195312 51.378906 C 40.761719 51.378906 41.265625 50.171875 41.265625 43.925781 C 41.265625 40.800781 41.417969 38.285156 41.667969 38.285156 C 41.871094 38.285156 43.933594 39.894531 46.296875 41.859375 C 54.601562 48.863281 55.859375 49.417969 57.875 47.25 C 58.828125 46.191406 58.878906 45.539062 58.878906 34.757812 C 58.878906 24.332031 58.777344 23.273438 57.972656 22.515625 C 57.472656 22.011719 56.664062 21.660156 56.210938 21.660156 C 55.710938 21.660156 52.386719 23.121094 48.816406 24.933594 C 45.242188 26.75 42.070312 28.207031 41.769531 28.207031 C 41.417969 28.207031 41.316406 23.828125 41.417969 15.164062 C 41.519531 8.007812 41.417969 1.664062 41.164062 1.058594 C 40.613281 -0.503906 37.089844 -0.453125 36.03125 1.109375 Z M 36.03125 1.109375 "/>
<path style=" stroke:none;fill-rule:nonzero;fill:rgb(0%,0%,0%);fill-opacity:1;" d="M 6.289062 14.808594 L 5.082031 16.019531 L 5.03125 32.691406 C 5.03125 48.761719 5.03125 49.367188 6.039062 50.375 C 6.996094 51.332031 7.648438 51.378906 19.273438 51.378906 C 30.546875 51.378906 31.605469 51.28125 32.359375 50.472656 C 33.566406 49.164062 33.414062 47.046875 32.105469 46.140625 C 31.152344 45.488281 29.238281 45.335938 21.035156 45.335938 L 11.070312 45.335938 L 11.171875 32.589844 L 11.324219 19.898438 L 21.136719 19.59375 C 26.519531 19.445312 31 19.292969 31.101562 19.242188 C 31.152344 19.191406 31.453125 18.539062 31.703125 17.832031 C 32.207031 16.523438 31.652344 14.757812 30.496094 14.003906 C 30.195312 13.800781 24.910156 13.601562 18.722656 13.601562 C 7.546875 13.601562 7.5 13.601562 6.289062 14.808594 Z M 6.289062 14.808594 "/>
</g>
</svg>
