<?xml version="1.0" encoding="UTF-8"?>
<svg xmlns="http://www.w3.org/2000/svg" xmlns:xlink="http://www.w3.org/1999/xlink" width="42pt" height="42pt" viewBox="0 0 42 42" version="1.1">
<g id="surface1">
<path style=" stroke:none;fill-rule:nonzero;fill:rgb(0%,0%,0%);fill-opacity:1;" d="M 24.164062 7.40625 C 23.671875 8.015625 23.671875 8.179688 23.671875 18.960938 C 23.671875 30.984375 23.671875 30.9375 25.054688 30.9375 C 26.25 30.9375 26.484375 30.375 26.484375 27.46875 C 26.484375 26.015625 26.554688 24.84375 26.671875 24.84375 C 26.765625 24.84375 27.726562 25.59375 28.828125 26.507812 C 32.648438 29.71875 33.257812 30.023438 34.21875 29.0625 C 34.664062 28.617188 34.6875 28.289062 34.6875 23.367188 C 34.6875 17.789062 34.546875 17.109375 33.492188 17.109375 C 33.257812 17.109375 31.664062 17.789062 30 18.632812 C 28.335938 19.476562 26.859375 20.15625 26.71875 20.15625 C 26.554688 20.15625 26.507812 18.117188 26.554688 14.0625 C 26.671875 7.335938 26.601562 6.960938 25.382812 6.84375 C 24.820312 6.796875 24.539062 6.914062 24.164062 7.40625 Z M 31.875 22.96875 C 31.875 24.117188 31.804688 25.078125 31.734375 25.078125 C 31.546875 25.078125 28.734375 22.734375 28.640625 22.523438 C 28.59375 22.382812 31.3125 20.90625 31.710938 20.882812 C 31.804688 20.859375 31.875 21.796875 31.875 22.96875 Z M 31.875 22.96875 "/>
<path style=" stroke:none;fill-rule:nonzero;fill:rgb(0%,0%,0%);fill-opacity:1;" d="M 10.195312 13.921875 L 9.65625 14.484375 L 9.609375 22.21875 C 9.585938 29.742188 9.609375 30 10.078125 30.46875 C 10.523438 30.914062 10.828125 30.9375 16.242188 30.9375 C 21.492188 30.9375 21.984375 30.890625 22.335938 30.515625 C 22.898438 29.90625 22.828125 28.921875 22.21875 28.5 C 21.773438 28.195312 20.882812 28.125 17.0625 28.125 L 12.421875 28.125 L 12.421875 16.171875 L 16.734375 16.171875 C 19.101562 16.171875 21.234375 16.101562 21.445312 16.03125 C 22.3125 15.679688 22.335938 14.109375 21.46875 13.546875 C 21.328125 13.453125 18.867188 13.359375 15.984375 13.359375 C 10.804688 13.359375 10.757812 13.359375 10.195312 13.921875 Z M 10.195312 13.921875 "/>
<path style=" stroke:none;fill-rule:nonzero;fill:rgb(0%,0%,0%);fill-opacity:1;" d="M 11.507812 32.71875 C 11.507812 32.976562 11.578125 33.046875 11.648438 32.859375 C 11.71875 32.695312 11.695312 32.484375 11.625 32.414062 C 11.554688 32.320312 11.484375 32.460938 11.507812 32.71875 Z M 11.507812 32.71875 "/>
<path style=" stroke:none;fill-rule:nonzero;fill:rgb(0%,0%,0%);fill-opacity:1;" d="M 12.351562 32.648438 C 12.28125 32.835938 12.375 32.976562 12.539062 32.976562 C 12.703125 32.976562 12.796875 32.835938 12.726562 32.648438 C 12.65625 32.484375 12.585938 32.34375 12.539062 32.34375 C 12.492188 32.34375 12.421875 32.484375 12.351562 32.648438 Z M 12.351562 32.648438 "/>
<path style=" stroke:none;fill-rule:nonzero;fill:rgb(0%,0%,0%);fill-opacity:1;" d="M 15.492188 32.71875 C 15.492188 32.976562 15.5625 33.046875 15.632812 32.859375 C 15.703125 32.695312 15.679688 32.484375 15.609375 32.414062 C 15.539062 32.320312 15.46875 32.460938 15.492188 32.71875 Z M 15.492188 32.71875 "/>
<path style=" stroke:none;fill-rule:nonzero;fill:rgb(0%,0%,0%);fill-opacity:1;" d="M 17.742188 32.648438 C 17.671875 32.835938 17.765625 32.976562 17.953125 32.976562 C 18.328125 32.976562 18.398438 32.671875 18.070312 32.484375 C 17.953125 32.414062 17.8125 32.484375 17.742188 32.648438 Z M 17.742188 32.648438 "/>
<path style=" stroke:none;fill-rule:nonzero;fill:rgb(0%,0%,0%);fill-opacity:1;" d="M 20.203125 32.8125 C 20.203125 33.140625 20.25 33.257812 20.320312 33.09375 C 20.367188 32.953125 20.367188 32.671875 20.320312 32.507812 C 20.25 32.367188 20.203125 32.484375 20.203125 32.8125 Z M 20.203125 32.8125 "/>
<path style=" stroke:none;fill-rule:nonzero;fill:rgb(0%,0%,0%);fill-opacity:1;" d="M 22.054688 32.71875 C 22.054688 32.976562 22.125 33.046875 22.195312 32.859375 C 22.265625 32.695312 22.242188 32.484375 22.171875 32.414062 C 22.101562 32.320312 22.03125 32.460938 22.054688 32.71875 Z M 22.054688 32.71875 "/>
<path style=" stroke:none;fill-rule:nonzero;fill:rgb(0%,0%,0%);fill-opacity:1;" d="M 23.226562 32.625 C 23.203125 32.859375 23.367188 33.046875 23.554688 33.046875 C 23.742188 33.046875 23.90625 32.859375 23.90625 32.625 C 23.90625 32.320312 23.859375 32.296875 23.695312 32.554688 C 23.53125 32.8125 23.484375 32.8125 23.367188 32.554688 C 23.273438 32.320312 23.226562 32.34375 23.226562 32.625 Z M 23.226562 32.625 "/>
<path style=" stroke:none;fill-rule:nonzero;fill:rgb(0%,0%,0%);fill-opacity:1;" d="M 24.984375 32.648438 C 25.054688 32.882812 25.195312 33 25.265625 32.929688 C 25.335938 32.859375 25.265625 32.671875 25.101562 32.507812 C 24.867188 32.296875 24.84375 32.320312 24.984375 32.648438 Z M 24.984375 32.648438 "/>
<path style=" stroke:none;fill-rule:nonzero;fill:rgb(0%,0%,0%);fill-opacity:1;" d="M 29.671875 32.695312 C 29.765625 32.882812 29.859375 33.046875 29.90625 33.046875 C 29.953125 33.046875 30 32.882812 30 32.695312 C 30 32.507812 29.90625 32.34375 29.765625 32.34375 C 29.648438 32.34375 29.601562 32.507812 29.671875 32.695312 Z M 29.671875 32.695312 "/>
<path style=" stroke:none;fill-rule:nonzero;fill:rgb(0%,0%,0%);fill-opacity:1;" d="M 32.625 32.8125 C 32.625 33.140625 32.671875 33.257812 32.742188 33.09375 C 32.789062 32.953125 32.789062 32.671875 32.742188 32.507812 C 32.671875 32.367188 32.625 32.484375 32.625 32.8125 Z M 32.625 32.8125 "/>
<path style=" stroke:none;fill-rule:nonzero;fill:rgb(0%,0%,0%);fill-opacity:1;" d="M 34.03125 32.554688 C 33.773438 32.71875 33.773438 32.765625 34.03125 32.882812 C 34.242188 32.953125 34.382812 32.859375 34.382812 32.671875 C 34.382812 32.484375 34.359375 32.34375 34.359375 32.34375 C 34.335938 32.34375 34.195312 32.4375 34.03125 32.554688 Z M 34.03125 32.554688 "/>
<path style=" stroke:none;fill-rule:nonzero;fill:rgb(0%,0%,0%);fill-opacity:1;" d="M 33.070312 32.953125 C 33.070312 33.210938 33.140625 33.28125 33.210938 33.09375 C 33.28125 32.929688 33.257812 32.71875 33.1875 32.648438 C 33.117188 32.554688 33.046875 32.695312 33.070312 32.953125 Z M 33.070312 32.953125 "/>
<path style=" stroke:none;fill-rule:nonzero;fill:rgb(0%,0%,0%);fill-opacity:1;" d="M 18.9375 32.976562 C 19.101562 33.046875 19.3125 33.023438 19.382812 32.953125 C 19.476562 32.882812 19.335938 32.8125 19.078125 32.835938 C 18.820312 32.835938 18.75 32.90625 18.9375 32.976562 Z M 18.9375 32.976562 "/>
</g>
</svg>
